# File created by Blade
# Date/Time:  Tue Jan 27 19:14:06 2015
# Frame Rate: 120.000 fps
#------------------------------------------------------
:FULLY-SPECIFIED
:DEGREES
2394
root 4.302417 32.446864 0.800526 -3.629194 9.428852 1.366078
Spine -0.992935 8.606709 -1.994897
Head 12.402114 -19.081690 -4.495841
LeftShoulder -5.790104 -8.386750 23.128326
LeftArm -4.850961 38.641226 -103.307503
LeftForeArm 4.022402 -0.000000 10.886845
LeftHand 10.064681 -0.000000 -7.555429
LeftHandThumb1 -26.253704 0.000000 33.147579
RightShoulder -11.913764 15.401404 -57.085417
RightArm 72.449720 67.244607 82.530310
RightForeArm 33.453612 -0.000000 112.504897
RightHand 30.384121 0.000000 -9.969374
RightHandThumb1 -24.326973 -0.000000 -32.862282
LeftUpLeg 9.152594 -6.386713 -1.979922
LeftLeg 1.907174 -0.000000 -0.000000
LeftFoot -14.094969 8.232120 -21.922759
LeftToeBase 19.155227 -0.000000 -0.000000
RightUpLeg 10.844034 -3.541250 2.323918
RightLeg -0.732999 -0.000000 0.000000
RightFoot -13.637943 -17.895794 15.664719
RightToeBase 11.618964 -0.000000 -0.000000
2395
root 4.302715 32.446630 0.801035 -3.628694 9.420339 1.367948
Spine -0.988273 8.607902 -1.987922
Head 12.415418 -19.096686 -4.500807
LeftShoulder -5.790189 -8.383554 23.118034
LeftArm -4.850798 38.649090 -103.304525
LeftForeArm 4.024026 -0.000000 10.898644
LeftHand 10.024034 -0.000000 -7.609398
LeftHandThumb1 -26.253704 0.000000 33.147579
RightShoulder -11.921165 15.414487 -57.099256
RightArm 72.452266 67.236853 82.544645
RightForeArm 33.438877 -0.000000 112.499494
RightHand 30.349939 -0.000000 -9.920549
RightHandThumb1 -24.326973 -0.000000 -32.862282
LeftUpLeg 9.146260 -6.369736 -1.979536
LeftLeg 1.920258 -0.000000 -0.000000
LeftFoot -14.104469 8.189023 -22.131455
LeftToeBase 19.104159 -0.000000 -0.000000
RightUpLeg 10.841475 -3.540553 2.319527
RightLeg -0.726782 -0.000000 0.000000
RightFoot -13.644584 -17.876911 15.668606
RightToeBase 11.641414 -0.000000 -0.000000
2396
root 4.302234 32.446527 0.801806 -3.616613 9.413745 1.366559
Spine -1.003031 8.604945 -1.978117
Head 12.452903 -19.083562 -4.540615
LeftShoulder -5.821700 -8.238143 23.107610
LeftArm -4.658423 38.768738 -103.205716
LeftForeArm 3.975750 -0.000000 10.857255
LeftHand 10.077930 -0.000000 -7.591375
LeftHandThumb1 -26.253704 0.000000 33.147579
RightShoulder -11.923551 15.342723 -57.107852
RightArm 72.613802 67.235875 82.703806
RightForeArm 33.422080 0.000000 112.501786
RightHand 30.351447 -0.000000 -10.004828
RightHandThumb1 -24.326973 -0.000000 -32.862282
LeftUpLeg 9.143531 -6.380851 -1.976922
LeftLeg 1.899619 -0.000000 -0.000000
LeftFoot -14.132287 8.245557 -22.029701
LeftToeBase 19.339697 -0.000000 -0.000000
RightUpLeg 10.831432 -3.535710 2.322273
RightLeg -0.730972 -0.000000 0.000000
RightFoot -13.639649 -17.883353 15.642392
RightToeBase 11.629778 -0.000000 -0.000000
2397
root 4.302497 32.446149 0.802766 -3.615974 9.405330 1.366573
Spine -0.997737 8.602244 -1.974301
Head 12.453790 -19.070878 -4.539633
LeftShoulder -5.839501 -8.245035 23.110772
LeftArm -4.671734 38.778242 -103.224739
LeftForeArm 4.001373 -0.000000 10.854750
LeftHand 10.057986 -0.000000 -7.562059
LeftHandThumb1 -26.253704 0.000000 33.147579
RightShoulder -11.927972 15.355758 -57.118523
RightArm 72.595558 67.242552 82.699239
RightForeArm 33.444807 0.000000 112.501104
RightHand 30.393130 0.000000 -9.911583
RightHandThumb1 -24.326973 -0.000000 -32.862282
LeftUpLeg 9.144238 -6.390853 -1.980296
LeftLeg 1.905274 -0.000000 -0.000000
LeftFoot -14.145798 8.256580 -22.025687
LeftToeBase 19.336618 -0.000000 -0.000000
RightUpLeg 10.830098 -3.544645 2.320713
RightLeg -0.729016 -0.000000 0.000000
RightFoot -13.630745 -17.866889 15.643004
RightToeBase 11.580445 -0.000000 -0.000000
2398
root 4.302351 32.445436 0.803715 -3.614892 9.396268 1.363861
Spine -0.999248 8.602156 -1.966030
Head 12.474753 -19.051710 -4.550489
LeftShoulder -5.833664 -8.233036 23.106216
LeftArm -4.675368 38.806599 -103.230119
LeftForeArm 3.993147 -0.000000 10.873199
LeftHand 10.018543 -0.000000 -7.525516
LeftHandThumb1 -26.253704 0.000000 33.147579
RightShoulder -11.928612 15.366811 -57.144710
RightArm 72.555296 67.250432 82.687956
RightForeArm 33.441138 0.000000 112.512708
RightHand 30.369274 -0.000000 -9.958567
RightHandThumb1 -24.326973 -0.000000 -32.862282
LeftUpLeg 9.147685 -6.385752 -1.976874
LeftLeg 1.900680 -0.000000 -0.000000
LeftFoot -14.148034 8.250331 -22.033832
LeftToeBase 19.290145 -0.000000 -0.000000
RightUpLeg 10.831306 -3.523906 2.326543
RightLeg -0.732846 -0.000000 0.000000
RightFoot -13.639561 -17.877363 15.658220
RightToeBase 11.599367 -0.000000 -0.000000
